<svg xmlns="http://www.w3.org/2000/svg" viewBox="0 0 22 18"><g fill="none" fill-rule="evenodd"><path d="M-1-3h24v24H-1z"/><path d="M20 2v14a28.012 28.012 0 00-9-1.489c-3.06 0-6.075.5-9 1.489V2a28.012 28.012 0 009 1.489C14.06 3.5 17.075 3 20 2zm1.373-2c-.11 0-.22.022-.341.067A28.047 28.047 0 0111 1.912C7.601 1.912 4.202 1.294.968.067A1.013 1.013 0 00.627 0C.253 0 0 .259 0 .709v16.593c0 .44.253.698.627.698.11 0 .22-.023.341-.067A28.047 28.047 0 0111 16.087c3.399 0 6.798.62 10.032 1.846a.965.965 0 00.341.067c.363 0 .627-.259.627-.709V.71c0-.45-.264-.709-.627-.709z" fill="#000" fill-rule="nonzero"/><path fill="#000" d="M13.5 6L10 10.51 7.5 7.5 4 12h14z"/></g></svg>